<?xml version="1.0" encoding="utf-8"?>
<!-- Generator: Adobe Illustrator 24.0.2, SVG Export Plug-In . SVG Version: 6.00 Build 0)  -->
<svg version="1.1" id="Layer_1" xmlns="http://www.w3.org/2000/svg" xmlns:xlink="http://www.w3.org/1999/xlink" x="0px" y="0px"
	 viewBox="0 0 551.8 144.7" style="enable-background:new 0 0 551.8 144.7;" xml:space="preserve">
<style type="text/css">
	.st0{fill:#FFFFFF;}
	.st1{fill:url(#SVGID_1_);}
	.st2{fill:url(#SVGID_2_);}
	.st3{fill:url(#SVGID_3_);}
	.st4{fill:url(#SVGID_4_);}
</style>
<g>
	<path class="st0" d="M207.6,89h21.6v10.4h-34.8V33.9h13.2L207.6,89z"/>
	<path class="st0" d="M285.6,77.4h-38.1c0.1,3.3,1.5,6.5,4,8.8c2.3,2.1,5.4,3.3,8.5,3.2c4.9,0,8.4-2.1,10.4-6.3h14.2
		c-1.5,5-4.5,9.3-8.6,12.4c-4.3,3.2-9.5,4.8-15.7,4.8c-4.7,0.1-9.4-1.1-13.5-3.3c-3.9-2.2-7.2-5.5-9.3-9.4
		c-2.3-4.3-3.4-9.2-3.3-14.1c-0.1-4.9,1-9.8,3.3-14.2c2.1-4,5.3-7.2,9.2-9.4c8.4-4.4,18.5-4.4,26.9-0.1c3.9,2.1,7,5.2,9.1,9.1
		c2.2,4.1,3.3,8.8,3.2,13.5C286,74,285.9,75.7,285.6,77.4L285.6,77.4z M272.4,68.6c0-3.1-1.3-6.1-3.7-8.1c-2.4-2.1-5.6-3.1-8.7-3.1
		c-3-0.1-6,1-8.2,3c-2.3,2.2-3.8,5.1-4.1,8.2H272.4z"/>
	<path class="st0" d="M295.4,59.3c1.9-3.9,4.9-7.1,8.5-9.4c3.6-2.2,7.8-3.3,12.1-3.3c3.5-0.1,7.1,0.7,10.2,2.3
		c2.7,1.4,5.1,3.4,7,5.9v-7.4h13.2v52.1h-13.2v-7.6c-1.8,2.6-4.2,4.6-7,6.1c-3.2,1.6-6.7,2.5-10.3,2.4c-4.2,0-8.4-1.1-12-3.4
		c-3.7-2.3-6.6-5.6-8.5-9.5c-2.2-4.4-3.2-9.3-3.1-14.2C292.2,68.4,293.2,63.6,295.4,59.3L295.4,59.3z M331.4,65.3
		c-1.2-2.2-2.9-4-5.1-5.3c-2.1-1.2-4.5-1.8-6.9-1.8c-4.9-0.1-9.5,2.6-11.8,7c-1.3,2.5-2,5.3-1.9,8.1c-0.1,2.9,0.6,5.7,1.9,8.2
		c1.2,2.2,2.9,4.1,5.1,5.4c2,1.2,4.3,1.9,6.7,1.9s4.8-0.6,6.9-1.8c2.2-1.2,3.9-3.1,5.1-5.3C333.9,76.5,333.9,70.4,331.4,65.3
		L331.4,65.3z"/>
	<path class="st0" d="M359.1,59.3c3.9-7.9,11.9-12.8,20.7-12.7c3.4,0,6.7,0.7,9.7,2.2c2.9,1.3,5.4,3.4,7.3,5.9V29.9h13.4v69.6h-13.4
		v-7.7c-1.7,2.6-4.1,4.8-6.9,6.2c-3.2,1.6-6.7,2.4-10.2,2.4c-4.2,0-8.4-1.1-12-3.4c-3.7-2.3-6.7-5.6-8.6-9.5
		c-2.2-4.4-3.2-9.2-3.1-14.2C355.9,68.4,357,63.6,359.1,59.3z M395.1,65.3c-1.2-2.2-2.9-4-5.1-5.3c-2.1-1.2-4.5-1.8-6.9-1.8
		s-4.7,0.6-6.8,1.8c-2.1,1.3-3.8,3.1-5,5.2c-1.3,2.5-2,5.3-1.9,8.1c-0.1,2.9,0.6,5.7,1.9,8.2c1.2,2.2,2.9,4.1,5.1,5.4
		c2,1.2,4.3,1.9,6.7,1.9s4.8-0.6,6.9-1.8c2.2-1.2,3.9-3.1,5.1-5.3C397.6,76.5,397.6,70.4,395.1,65.3L395.1,65.3z"/>
	<path class="st0" d="M490.3,34.4v65.1h-8.6V51l-21.6,48.5h-6l-21.7-48.6v48.6h-8.5v-65h9.2l24.1,53.8l24.1-53.8L490.3,34.4z"/>
	<path class="st0" d="M551.5,76.9h-41.2c0.3,5.1,2.1,9,5.2,11.9c3.1,2.8,7.3,4.4,11.5,4.3c3.3,0.1,6.5-0.8,9.3-2.6
		c2.4-1.7,4.3-4.1,5.2-6.9h9.2c-1.3,4.8-4.2,9.1-8.2,12.1c-4.1,3.1-9.3,4.6-15.4,4.6c-4.6,0.1-9.1-1.1-13.1-3.3
		c-3.9-2.2-7-5.4-9.1-9.3c-2.3-4.3-3.4-9.1-3.3-14c-0.1-4.9,1-9.7,3.2-14c2-3.9,5.2-7.1,9-9.3c4.1-2.2,8.7-3.3,13.3-3.2
		c4.5-0.1,9,1,13,3.2c3.7,2,6.7,5.1,8.7,8.8c2.1,3.9,3.1,8.2,3,12.6C551.8,73.5,551.7,75.2,551.5,76.9L551.5,76.9z M540.8,61.6
		c-1.4-2.3-3.4-4.2-5.9-5.4c-2.6-1.2-5.4-1.9-8.2-1.8c-4.1-0.1-8,1.4-11,4.1c-3,2.8-4.8,6.6-5.2,11.5H543
		C543,67,542.3,64.1,540.8,61.6L540.8,61.6z"/>
</g>
<linearGradient id="SVGID_1_" gradientUnits="userSpaceOnUse" x1="-2076.1018" y1="-3502.2983" x2="-2025.9418" y2="-3568.7383" gradientTransform="matrix(-0.9361 -0.3517 0.3517 -0.9361 -598.9583 -3996.1533)">
	<stop  offset="9.000000e-02" style="stop-color:#484FE4"/>
	<stop  offset="1" style="stop-color:#377EFF"/>
</linearGradient>
<path class="st1" d="M33.1,31.5L80.5,8.9l19.9,12.5l5.2,27.1L74.1,63.9C60,70.8,43,65,36.1,50.9c-0.4-0.7-0.7-1.5-1-2.3
	c-1.7-4.4-3.2-8.3-4.3-11.1C29.8,35.2,30.8,32.6,33.1,31.5z"/>
<linearGradient id="SVGID_2_" gradientUnits="userSpaceOnUse" x1="877.209" y1="491.5592" x2="927.3591" y2="425.1091" gradientTransform="matrix(0.9263 0.3767 -0.3767 0.9263 -580.5825 -653.6849)">
	<stop  offset="0.23" style="stop-color:#5E64FF"/>
	<stop  offset="1" style="stop-color:#985CD0"/>
</linearGradient>
<path class="st2" d="M127,115.1l-48,21.3l-19.4-13l-4.5-27.2L87,81.6c14.3-6.5,31.1-0.2,37.7,14c0.3,0.8,0.7,1.5,0.9,2.3
	c1.6,4.4,3,8.4,4,11.2C130.4,111.5,129.3,114.1,127,115.1L127,115.1z"/>
<linearGradient id="SVGID_3_" gradientUnits="userSpaceOnUse" x1="139.5564" y1="604.7103" x2="182.8564" y2="743.6603" gradientTransform="matrix(0.9985 5.564724e-02 -5.564724e-02 0.9985 -87.3777 -610.9232)">
	<stop  offset="0" style="stop-color:#6F64FF"/>
	<stop  offset="1" style="stop-color:#CA5CD0"/>
</linearGradient>
<path class="st3" d="M21.9,120.1L0.1,8.8c-0.4-2.2,0.9-4.3,3-4.9l6-1.8c17.3-5.2,35.5,4.6,40.7,21.8c0.3,1,0.6,2,0.8,3.1l18.1,90.7
	c1.6,7.1,5.2,13.6,10.3,18.7l-8.2,3.7C49.5,151.9,27.1,139.4,21.9,120.1L21.9,120.1z"/>
<linearGradient id="SVGID_4_" gradientUnits="userSpaceOnUse" x1="256.98" y1="771.0121" x2="192.5401" y2="629.0421" gradientTransform="matrix(0.9992 4.065496e-02 -4.065496e-02 0.9992 -63.8361 -619.6791)">
	<stop  offset="9.000000e-02" style="stop-color:#484FE4"/>
	<stop  offset="1" style="stop-color:#00E8FF"/>
</linearGradient>
<path class="st4" d="M138.1,23.7l24.8,110.7c0.5,2.1-0.7,4.3-2.8,5l-5.9,2c-17.1,5.7-35.6-3.6-41.3-20.7c-0.3-1-0.6-2-0.8-3
	L91.4,27.4C89.6,20.4,85.9,14,80.6,9l8-4C109.6-7.3,132.3,4.5,138.1,23.7z"/>
</svg>
